<?xml version="1.0" encoding="utf-8"?>
<!-- Generator: Adobe Illustrator 22.0.1, SVG Export Plug-In . SVG Version: 6.00 Build 0)  -->
<svg version="1.1" id="Layer_1" xmlns="http://www.w3.org/2000/svg" xmlns:xlink="http://www.w3.org/1999/xlink" x="0px" y="0px"
	 viewBox="0 0 793.701 609.449" enable-background="new 0 0 793.701 609.449" xml:space="preserve">
<g>
	<polygon fill="#243746" points="372.868,302.432 374.557,294.515 377.197,294.515 376.063,299.793 389.258,299.793 
		392.083,286.596 363.05,286.596 358.563,307.711 374.399,307.711 372.71,315.629 370.07,315.629 371.18,310.35 357.982,310.35 
		355.185,323.547 384.217,323.547 388.705,302.432 	"/>
	<polygon fill="#243746" points="394.723,286.596 389.1,312.99 402.297,312.99 406.23,294.515 408.869,294.515 404.383,315.629 
		388.545,315.629 386.857,323.547 415.89,323.547 423.755,286.596 	"/>
	<path fill="#243746" d="M426.394,286.596l-7.865,36.951h29.032l7.865-36.951H426.394z M436.055,315.629h-2.64l4.487-21.115h2.64
		L436.055,315.629z"/>
	<polygon fill="#243746" points="331.675,286.553 325.202,315.629 322.562,315.629 328.945,286.553 315.838,286.553 
		309.366,315.629 306.727,315.629 313.109,286.553 300.008,286.553 291.84,323.547 336.709,323.547 344.786,286.553 	"/>
	<polygon fill="#243746" points="457.721,286.553 449.643,323.547 462.755,323.547 469.228,294.472 471.867,294.472 
		465.485,323.547 478.591,323.547 485.063,294.472 487.703,294.472 481.32,323.547 494.421,323.547 502.589,286.553 	"/>
	<polygon fill="#243746" points="347.214,286.596 339.497,323.227 352.727,323.459 360.41,286.596 	"/>
</g>
</svg>
